# xmcd
#
# Track frame offsets:
#	183
#	1843
#	16728
#	35508
#	63415
#	87115
#	105620
#	122073
#
# Disc length: 1946 seconds
#
# Revision: 0
# Processed by: cddbd v1.4PL0 Copyright (c) Steve Scherf et al.
# Submitted via: EasyCDDAExtractor 4.6.9.1
#
DISCID=54079808
DTITLE=Johnny Guitar Watson - And The Family Clone
DYEAR=1981
DGENRE=BLUES
TTITLE0=Clone Information
TTITLE1=Family Clone
TTITLE2=Forget The Joneses
TTITLE3=Ain't Movin'
TTITLE4=Come And Dance With Me
TTITLE5=Rio Dreamin'
TTITLE6=What Is Love?
TTITLE7=Voodoo What You Do
EXTD=
EXTT0=
EXTT1=
EXTT2=
EXTT3=
EXTT4=
EXTT5=
EXTT6=
EXTT7=
PLAYORDER=
